<?xml version="1.0"?>
<svg xmlns="http://www.w3.org/2000/svg" height="512px" viewBox="-48 0 480 480.00373" width="512px"><path d="m376 144.003906h-64v-40c.003906-3.980468-2.921875-7.355468-6.863281-7.921875l-105.136719-15.023437v-17.054688h12.675781c8.6875-.011718 17.257813-2.035156 25.039063-5.914062l21.863281-10.886719c2.726563-1.359375 4.441406-4.152344 4.421875-7.199219v-32c.003906-2.773437-1.429688-5.347656-3.789062-6.808594-2.359376-1.457031-5.304688-1.589843-7.785157-.351562l-21.871093 10.9375c-5.554688 2.769531-11.675782 4.214844-17.878907 4.222656h-20.675781c-4.417969 0-8 3.582032-8 8v57.054688l-105.132812 15.023437c-3.941407.566407-6.867188 3.941407-6.867188 7.921875v40h-64c-4.417969 0-8 3.582032-8 8v320c0 4.417969 3.582031 8 8 8h368c4.421875 0 8-3.582031 8-8v-320c0-4.417968-3.578125-8-8-8zm-138.285156-117.914062 10.285156-5.140625v14.109375l-17.445312 8.722656c-5.554688 2.769531-11.675782 4.214844-17.878907 4.222656h-12.675781v-16h12.675781c8.6875-.011718 17.257813-2.035156 25.039063-5.914062zm-149.714844 84.851562 104-14.859375 104 14.859375v33.0625h-208zm16 353.0625v-64h176v64zm264 0h-72v-72c0-4.417968-3.578125-8-8-8h-192c-4.417969 0-8 3.582032-8 8v72h-72v-304h352zm0 0" fill="#960898"/><path d="m88 168.003906h-48c-4.417969 0-8 3.582032-8 8v48c0 4.417969 3.582031 8 8 8h48c4.421875 0 8-3.582031 8-8v-48c0-4.417968-3.578125-8-8-8zm-8 48h-32v-32h32zm0 0" fill="#960898"/><path d="m168 168.003906h-48c-4.417969 0-8 3.582032-8 8v48c0 4.417969 3.582031 8 8 8h48c4.421875 0 8-3.582031 8-8v-48c0-4.417968-3.578125-8-8-8zm-8 48h-32v-32h32zm0 0" fill="#960898"/><path d="m264 168.003906h-48c-4.417969 0-8 3.582032-8 8v48c0 4.417969 3.582031 8 8 8h48c4.421875 0 8-3.582031 8-8v-48c0-4.417968-3.578125-8-8-8zm-8 48h-32v-32h32zm0 0" fill="#960898"/><path d="m288 176.003906v48c0 4.417969 3.582031 8 8 8h48c4.421875 0 8-3.582031 8-8v-48c0-4.417968-3.578125-8-8-8h-48c-4.417969 0-8 3.582032-8 8zm16 8h32v32h-32zm0 0" fill="#960898"/><path d="m88 240.003906h-48c-4.417969 0-8 3.582032-8 8v48c0 4.417969 3.582031 8 8 8h48c4.421875 0 8-3.582031 8-8v-48c0-4.417968-3.578125-8-8-8zm-8 48h-32v-32h32zm0 0" fill="#960898"/><path d="m168 240.003906h-48c-4.417969 0-8 3.582032-8 8v48c0 4.417969 3.582031 8 8 8h48c4.421875 0 8-3.582031 8-8v-48c0-4.417968-3.578125-8-8-8zm-8 48h-32v-32h32zm0 0" fill="#960898"/><path d="m264 240.003906h-48c-4.417969 0-8 3.582032-8 8v48c0 4.417969 3.582031 8 8 8h48c4.421875 0 8-3.582031 8-8v-48c0-4.417968-3.578125-8-8-8zm-8 48h-32v-32h32zm0 0" fill="#960898"/><path d="m344 240.003906h-48c-4.417969 0-8 3.582032-8 8v48c0 4.417969 3.582031 8 8 8h48c4.421875 0 8-3.582031 8-8v-48c0-4.417968-3.578125-8-8-8zm-8 48h-32v-32h32zm0 0" fill="#960898"/><path d="m88 312.003906h-48c-4.417969 0-8 3.582032-8 8v48c0 4.417969 3.582031 8 8 8h48c4.421875 0 8-3.582031 8-8v-48c0-4.417968-3.578125-8-8-8zm-8 48h-32v-32h32zm0 0" fill="#960898"/><path d="m168 312.003906h-48c-4.417969 0-8 3.582032-8 8v48c0 4.417969 3.582031 8 8 8h48c4.421875 0 8-3.582031 8-8v-48c0-4.417968-3.578125-8-8-8zm-8 48h-32v-32h32zm0 0" fill="#960898"/><path d="m264 312.003906h-48c-4.417969 0-8 3.582032-8 8v48c0 4.417969 3.582031 8 8 8h48c4.421875 0 8-3.582031 8-8v-48c0-4.417968-3.578125-8-8-8zm-8 48h-32v-32h32zm0 0" fill="#960898"/><path d="m344 312.003906h-48c-4.417969 0-8 3.582032-8 8v48c0 4.417969 3.582031 8 8 8h48c4.421875 0 8-3.582031 8-8v-48c0-4.417968-3.578125-8-8-8zm-8 48h-32v-32h32zm0 0" fill="#960898"/></svg>
